# xmcd
#
# Track frame offsets: 
#        150
#        12795
#        25717
#        41238
#        55027
#        68323
#        83265
#        98688
#        112748
#        126573
#        139515
#        155027
#        176768
#        190131
#        203790
#        217544
#        230884
#        246213
#        257880
#        272265
#        285327
#        296973
#        310306
#        322577
#
# Disc length: 4472 seconds
#
# Revision: 6
# Processed by: cddbd v1.5.2PL0 Copyright (c) Steve Scherf et al.
# Submitted via: ExactAudioCopy v1.3
#
DISCID=41117618
DTITLE=Various Artist - The Rough Guide To Delta Blues
DYEAR=2002
DGENRE=Blues
TTITLE0=RL Burnside - Jumper On The Line
TTITLE1=Robert Johnson - Preaching Blues (Up Jumped The Devil)
TTITLE2=Mississippi Fred McDowell - Done Left Here
TTITLE3=Charley Patton - High Water Everywhere Part One
TTITLE4=Son House - Walkin' Blues
TTITLE5=Mississippi Sheiks - Sitting On Top Of The World
TTITLE6=Muddy Waters - Country Blues
TTITLE7=Asie Payton - Goin' Back To The Bridge
TTITLE8=Geechie Wiley and Elvie Thomas - Last Kind Words Blues
TTITLE9=Robert Petway - Catfish Blues
TTITLE10=Tommy Johnson - Cool Drink Of Water Blues
TTITLE11=Robert Belfour - Black Mattie
TTITLE12=Blind Joe (Willie) Reynolds - Outside Woman Blues
TTITLE13=Willie Brown - Future Blues
TTITLE14=Louise Johnson - On The Wall
TTITLE15=Mississippi John Hurt - Stack O'Lee Blues
TTITLE16=Alfred Lewis - Mississippi Swamp Moan
TTITLE17=Bukka White - Aberdeen Mississippi Blues
TTITLE18=Junior Kimbrough - Meet Me In The City
TTITLE19=Robert Wilkins - That's No Way To Get Along
TTITLE20=Big Bill Broonzy - The Banker's Blues
TTITLE21=Bo Carter - Don't Mash My Digger So Deep
TTITLE22=Big Joe Williams - Baby Please Don't Go
TTITLE23=Skip James - I'm So Glad
EXTD=YEAR: 2002
EXTT0=
EXTT1=
EXTT2=
EXTT3=
EXTT4=
EXTT5=
EXTT6=
EXTT7=
EXTT8=
EXTT9=
EXTT10=
EXTT11=
EXTT12=
EXTT13=
EXTT14=
EXTT15=
EXTT16=
EXTT17=
EXTT18=
EXTT19=
EXTT20=
EXTT21=
EXTT22=
EXTT23=
PLAYORDER=
